<?xml version="1.0" encoding="utf-8"?>
<!-- Generator: Adobe Illustrator 21.0.0, SVG Export Plug-In . SVG Version: 6.00 Build 0)  -->
<svg version="1.1" id="Capa_1" xmlns="http://www.w3.org/2000/svg" xmlns:xlink="http://www.w3.org/1999/xlink" x="0px" y="0px"
	 viewBox="0 0 468.3 468.3" style="enable-background:new 0 0 468.3 468.3;" xml:space="preserve">
<style type="text/css">
	.st0{fill:#44C4A1;}
	.st1{fill:#3EA69B;}
	.st2{fill:#2D93BA;}
	.st3{fill:#1590BA;}
	.st4{fill:#E1E6E9;}
	.st5{fill:#27A2DB;}
</style>
<path class="st0" d="M330,213.8c63.2,13.1,125.1-27.5,138.3-90.7C405.1,110,343.2,150.6,330,213.8z"/>
<path class="st1" d="M452.1,133.2l-40.7,27.5c1.9-4.3,3.8-10.5,1.6-16l-3.6,17.4l-25.7,17.4c2.2-4.1,5.2-11.6,2.6-18.1l-4,19.1
	l-38.5,26c0,0,27.5-13.2,56.6-32c5.3,3.7,12.9,2.9,12.9,2.9l-10.7-4.3c8.1-5.3,16.2-10.9,23.9-16.8c5.1,5.4,14.7,4.4,14.7,4.4
	l-13.5-5.4C436.9,148.1,445.4,140.7,452.1,133.2z"/>
<path class="st0" d="M138.3,223C75.1,236.2,13.2,195.6,0,132.4C63.2,119.2,125.1,159.8,138.3,223z"/>
<path class="st1" d="M16.2,142.4l40.7,27.5c-1.9-4.3-3.8-10.5-1.6-16l3.6,17.4l25.7,17.4c-2.2-4.1-5.2-11.6-2.6-18.1l4,19.1l38.5,26
	c0,0-27.5-13.2-56.6-32c-5.3,3.7-12.9,2.9-12.9,2.9l10.7-4.3c-8.1-5.3-16.2-10.9-23.9-16.8c-5.1,5.4-14.7,4.4-14.7,4.4l13.5-5.4
	C31.4,157.3,22.9,149.9,16.2,142.4z"/>
<path class="st2" d="M358.8,139.6c0,65.8-57.6,119.2-128.6,119.2s-128.7-53.4-128.7-119.2c0-3.2,0.1-6.6,0.5-9.7
	c5.3,61.3,60.7,109.5,128.2,109.5c67.5,0,122.8-48.2,128.1-109.5C358.6,133,358.8,136.3,358.8,139.6z"/>
<g>
	<path class="st3" d="M358.3,129.8c-5.3,61.3-60.6,109.5-128.1,109.5S107.3,191.1,102,129.8c5.3-61.3,60.7-109.4,128.2-109.4
		C297.7,20.4,353,68.6,358.3,129.8z"/>
	<ellipse class="st3" cx="128.6" cy="328.7" rx="128.6" ry="119.2"/>
</g>
<g>
	<path class="st4" d="M33.4,365.1c-2.6,0-5-1.5-6-4c-4.3-10.4-6.5-21.3-6.5-32.4c0-3.6,2.9-6.5,6.5-6.5h0c3.6,0,6.5,2.9,6.5,6.5
		c0,9.4,1.9,18.7,5.5,27.5c1.4,3.3-0.2,7.1-3.5,8.5C35,365,34.2,365.1,33.4,365.1z"/>
	<path class="st4" d="M94.1,415.7c-0.9,0-1.9-0.2-2.8-0.6c-14.8-7.1-27.5-16.7-37.6-28.4c-2.3-2.7-2-6.8,0.7-9.2s6.8-2,9.2,0.7
		c9,10.4,20.2,18.9,33.4,25.2c3.2,1.6,4.6,5.4,3,8.7C98.9,414.4,96.6,415.7,94.1,415.7z"/>
	<path class="st4" d="M159.8,429.1C159.8,429.1,159.8,429.1,159.8,429.1c-8.1,0-16.2-0.7-24.3-2.1c-3.5-0.6-5.9-4-5.3-7.5
		c0.6-3.5,4-5.9,7.5-5.3c7.3,1.3,14.8,1.9,22.1,1.9c3.6,0,6.5,2.9,6.5,6.5C166.3,426.2,163.4,429.1,159.8,429.1z"/>
</g>
<path class="st5" d="M146.2,265.1c-0.9,0-1.9-0.3-2.8-0.8l-23.2-13.8l-23.2,13.8c-1.9,1.1-4,1.1-5.2,0c-1.2-1.1-1.2-2.9,0-4.5
	l12.9-18.5l-13.2-7.8c-0.8-0.5-0.8-1.2,0-1.9c0.7-0.7,2-1.1,3.2-1.1h17.6l5.8-8.4c0.6-0.9,3.7-0.9,4.3,0l5.8,8.4h17.6
	c1.2,0,2.4,0.5,3.2,1.1c0.7,0.7,0.7,1.5,0,1.9l-13.2,7.8l12.9,18.5c1.1,1.6,1.1,3.5,0,4.5C147.9,264.9,147.1,265.1,146.2,265.1z
	 M120.2,244.3c0.7,0,1.4,0.2,2,0.5l12.9,7l-6.3-10.7c-0.5-0.9-0.2-1.9,0.8-2.5l8.9-4.8h-12c-1.2,0-2.4-0.5-2.8-1.2l-3.6-6.1
	l-3.6,6.1c-0.4,0.7-1.6,1.2-2.8,1.2h-12l8.9,4.8c1,0.5,1.3,1.5,0.8,2.5l-6.3,10.7l12.9-7C118.8,244.5,119.5,244.3,120.2,244.3z"/>
<path class="st2" d="M468.3,328.7c0,63.7-54,115.8-122,119.1h-1.2c-1.8,0.1-3.6,0.1-5.4,0.1c-71,0-128.7-53.4-128.7-119.2
	s57.6-119.2,128.7-119.2c1.8,0,3.6,0.1,5.4,0.1h1.2C414.3,212.8,468.3,264.9,468.3,328.7z"/>
<path class="st3" d="M468.3,328.7c0,63.7-54,115.8-122,119.1h-1.2c-68-3.2-122-55.3-122-119.1s54.1-115.9,122-119.1h1.2
	C414.3,212.8,468.3,264.9,468.3,328.7z"/>
<g>
	<path class="st4" d="M254.2,365.1c-2.6,0-5-1.5-6-4c-4.3-10.4-6.5-21.3-6.5-32.4c0-3.6,2.9-6.5,6.5-6.5h0c3.6,0,6.5,2.9,6.5,6.5
		c0,9.4,1.9,18.7,5.5,27.5c1.4,3.3-0.2,7.1-3.5,8.5C255.8,365,255,365.1,254.2,365.1z"/>
	<path class="st4" d="M315.8,420.9c-0.9,0-1.9-0.2-2.8-0.6c-14.8-7.1-27.5-16.7-37.6-28.4c-2.3-2.7-2-6.8,0.7-9.2s6.8-2,9.2,0.7
		c9,10.4,20.2,18.9,33.4,25.2c3.2,1.6,4.6,5.4,3,8.7C320.5,419.5,318.2,420.9,315.8,420.9z"/>
	<path class="st4" d="M160.2,181.5c-1-0.3-1.9-0.8-2.8-1.5c-13.5-12.1-23.9-26.1-31-41.7c-1.6-3.6-0.1-7.8,3.5-9.5
		c3.6-1.6,7.8-0.1,9.5,3.6c6.3,13.8,15.5,26.2,27.5,37c2.9,2.6,3.2,7.2,0.5,10.1C165.7,181.6,162.8,182.3,160.2,181.5z"/>
</g>
<g>
	<path class="st5" d="M374.2,265.1c-0.9,0-1.9-0.3-2.8-0.8l-23.2-13.8L325,264.3c-1.9,1.1-4,1.1-5.2,0c-1.2-1.1-1.2-2.9,0-4.5
		l12.9-18.5l-13.2-7.8c-0.8-0.5-0.8-1.2,0-1.9c0.7-0.7,2-1.1,3.2-1.1h17.6l5.8-8.4c0.6-0.9,3.7-0.9,4.3,0l5.8,8.4h17.6
		c1.2,0,2.4,0.5,3.2,1.1c0.7,0.7,0.7,1.5,0,1.9l-13.2,7.8l12.9,18.5c1.1,1.6,1.1,3.5,0,4.5C376,264.9,375.1,265.1,374.2,265.1z
		 M348.2,244.3c0.7,0,1.4,0.2,2,0.5l12.9,7l-6.3-10.7c-0.5-0.9-0.2-1.9,0.8-2.5l8.9-4.8h-12c-1.2,0-2.4-0.5-2.8-1.2l-3.6-6.1
		l-3.6,6.1c-0.4,0.7-1.6,1.2-2.8,1.2h-12l8.9,4.8c1,0.5,1.3,1.5,0.8,2.5l-6.3,10.7l12.9-7C346.8,244.5,347.5,244.3,348.2,244.3z"/>
	<circle class="st5" cx="348.2" cy="237.8" r="4.2"/>
	<path class="st5" d="M255.9,85.2c-0.9,0-1.9-0.3-2.8-0.8l-23.2-13.8l-23.2,13.8c-1.9,1.1-4,1.1-5.2,0c-1.2-1.1-1.2-2.9,0-4.5
		l12.9-18.5l-13.2-7.8c-0.8-0.5-0.8-1.2,0-1.9c0.7-0.7,2-1.1,3.2-1.1h17.6l5.8-8.4c0.6-0.9,3.7-0.9,4.3,0l5.8,8.4h17.6
		c1.2,0,2.4,0.5,3.2,1.1c0.7,0.7,0.7,1.5,0,1.9l-13.2,7.8l12.9,18.5c1.1,1.6,1.1,3.5,0,4.5C257.6,85,256.8,85.2,255.9,85.2z
		 M229.8,64.4c0.7,0,1.4,0.2,2,0.5l12.9,7l-6.3-10.7c-0.5-0.9-0.2-1.9,0.8-2.5l8.9-4.8h-12c-1.2,0-2.4-0.5-2.8-1.2l-3.6-6.1
		l-3.6,6.1c-0.4,0.7-1.6,1.2-2.8,1.2h-12l8.9,4.8c1,0.5,1.3,1.5,0.8,2.5l-6.3,10.7l12.9-7C228.4,64.5,229.1,64.4,229.8,64.4z"/>
	<circle class="st5" cx="229.8" cy="57.9" r="4.2"/>
	<circle class="st5" cx="120.2" cy="237.8" r="4.2"/>
</g>
</svg>
